<?xml version="1.0"?>
<svg xmlns:rdf="http://www.w3.org/1999/02/22-rdf-syntax-ns#" xmlns="http://www.w3.org/2000/svg" xmlns:cc="http://creativecommons.org/ns#" xmlns:xlink="http://www.w3.org/1999/xlink" xmlns:dc="http://purl.org/dc/elements/1.1/" xmlns:svg="http://www.w3.org/2000/svg" id="svg2" viewBox="0 0 768 768" version="1.1">
  <defs id="defs4">
    <clipPath id="clipPathFlag" clipPathUnits="userSpaceOnUse">
      <rect id="rect3918" fill-opacity=".67" ry="57" height="511" width="511" y=".5" x=".5"/>
    </clipPath>
    <linearGradient id="linearGradient3852-0">
      <stop id="stop3854-6" stop-color="#dbe3db" offset="0"/>
      <stop id="stop3856-1" stop-color="#dbe3db" stop-opacity="0" offset="1"/>
    </linearGradient>
    <linearGradient id="linearGradient5122" x1="342.19" xlink:href="#linearGradient3852-0" gradientUnits="userSpaceOnUse" y1="705.76" gradientTransform="matrix(1.1571 0 0 1.3167 -91.204 -253.99)" x2="358.08" y2="523.41"/>
    <linearGradient id="linearGradient5125" x1="405.26" xlink:href="#linearGradient3852-0" gradientUnits="userSpaceOnUse" y1="118.06" gradientTransform="matrix(.95303 0 0 .86647 11.575 -4.5016)" x2="405.75" y2="360.92"/>
    <filter id="filter5740">
      <feGaussianBlur id="feGaussianBlur5742" stdDeviation="5.12"/>
    </filter>
    <clipPath id="clipPath5796" clipPathUnits="userSpaceOnUse">
      <rect id="rect5798" ry="57" height="512" width="512" stroke="#00fa00" y="0" x="0" stroke-width="20" fill="none"/>
    </clipPath>
    <filter id="filter5912">
      <feGaussianBlur id="feGaussianBlur5914" stdDeviation="17.92"/>
    </filter>
  </defs>
  <g id="template-button">&gt;
  <g id="00" transform="translate(90,90)"><rect id="shadow" ry="57" height="512" filter="url(#filter5912)" width="512" stroke="#a8a8a8" y="56" x="38" stroke-width="5"/></g>
  <g id="01" transform="translate(128,128)" clip-path="url(#clipPathFlag)"><rect id="mask" ry="57" height="512" width="512" y="0" x="0" fill="#00f"/><g id="flag" clip-path="url(#clipPath12804)"><rect id="rect555" height="511.87" width="307.43" stroke="url(#linearGradient11677)" y=".064535" x="-114.94" stroke-width=".10324pt" fill="#090"/><rect id="rect557" fill-rule="evenodd" height="512" width="461.15" y="-.0000025034" x="191.82" stroke-width="1pt" fill="#f00"/><g id="g1527" transform="matrix(.10329 0 0 .10306 23.562 74.592)"><g id="g1009" transform="matrix(-.053403 1.0792 .43966 -.043588 1384.9 -475.58)"><rect id="rect1010" fill-rule="evenodd" height="2824.2" width="171.54" y="376.91" x="1528.3" stroke-width="1pt"/><rect id="rect1011" fill-rule="evenodd" height="2768.8" width="131.37" y="404.6" x="1548.3" stroke-width="1pt" fill="#efef00"/><g id="g1012" transform="translate(9.3838 -.000030518)"><rect id="rect1013" fill-rule="evenodd" height="2852.7" width="56.303" y="357.96" x="1482.6" stroke-width="1pt"/><rect id="rect1014" fill-rule="evenodd" height="2802" width="15.952" y="383.29" x="1502.8" stroke-width="1pt" fill="#efef00"/></g><g id="g1015" transform="translate(197.06 -.000030518)"><rect id="rect1016" fill-rule="evenodd" height="2852.7" width="56.303" y="357.96" x="1482.6" stroke-width="1pt"/><rect id="rect1017" fill-rule="evenodd" height="2802" width="15.952" y="383.29" x="1502.8" stroke-width="1pt" fill="#efef00"/></g></g><g id="g1000" transform="matrix(-.053403 1.0792 .43966 -.043588 1572.6 115.61)"><rect id="rect1001" fill-rule="evenodd" height="2824.2" width="171.54" y="376.91" x="1528.3" stroke-width="1pt"/><rect id="rect1002" fill-rule="evenodd" height="2768.8" width="131.37" y="404.6" x="1548.3" stroke-width="1pt" fill="#efef00"/><g id="g1003" transform="translate(9.3838 -.000030518)"><rect id="rect1004" fill-rule="evenodd" height="2852.7" width="56.303" y="357.96" x="1482.6" stroke-width="1pt"/><rect id="rect1005" fill-rule="evenodd" height="2802" width="15.952" y="383.29" x="1502.8" stroke-width="1pt" fill="#efef00"/></g><g id="g1006" transform="translate(197.06 -.000030518)"><rect id="rect1007" fill-rule="evenodd" height="2852.7" width="56.303" y="357.96" x="1482.6" stroke-width="1pt"/><rect id="rect1008" fill-rule="evenodd" height="2802" width="15.952" y="383.29" x="1502.8" stroke-width="1pt" fill="#efef00"/></g></g><g id="g991" transform="matrix(-.053403 1.0792 .43966 -.043588 1497.5 781.86)"><rect id="rect992" fill-rule="evenodd" height="2824.2" width="171.54" y="376.91" x="1528.3" stroke-width="1pt"/><rect id="rect993" fill-rule="evenodd" height="2768.8" width="131.37" y="404.6" x="1548.3" stroke-width="1pt" fill="#efef00"/><g id="g994" transform="translate(9.3838 -.000030518)"><rect id="rect995" fill-rule="evenodd" height="2852.7" width="56.303" y="357.96" x="1482.6" stroke-width="1pt"/><rect id="rect996" fill-rule="evenodd" height="2802" width="15.952" y="383.29" x="1502.8" stroke-width="1pt" fill="#efef00"/></g><g id="g997" transform="translate(197.06 -.000030518)"><rect id="rect998" fill-rule="evenodd" height="2852.7" width="56.303" y="357.96" x="1482.6" stroke-width="1pt"/><rect id="rect999" fill-rule="evenodd" height="2802" width="15.952" y="383.29" x="1502.8" stroke-width="1pt" fill="#efef00"/></g></g><g id="g982" transform="matrix(.053403 1.0792 -.43966 -.043588 1815 734.94)"><rect id="rect983" fill-rule="evenodd" height="2824.2" width="171.54" y="376.91" x="1528.3" stroke-width="1pt"/><rect id="rect984" fill-rule="evenodd" height="2768.8" width="131.37" y="404.6" x="1548.3" stroke-width="1pt" fill="#efef00"/><g id="g985" transform="translate(9.3838 -.000030518)"><rect id="rect986" fill-rule="evenodd" height="2852.7" width="56.303" y="357.96" x="1482.6" stroke-width="1pt"/><rect id="rect987" fill-rule="evenodd" height="2802" width="15.952" y="383.29" x="1502.8" stroke-width="1pt" fill="#efef00"/></g><g id="g988" transform="translate(197.06 -.000030518)"><rect id="rect989" fill-rule="evenodd" height="2852.7" width="56.303" y="357.96" x="1482.6" stroke-width="1pt"/><rect id="rect990" fill-rule="evenodd" height="2802" width="15.952" y="383.29" x="1502.8" stroke-width="1pt" fill="#efef00"/></g></g><g id="g937" transform="matrix(-.31852 .97312 -.46881 -.050001 2307.7 363.88)"><rect id="rect938" fill-rule="evenodd" height="2824.2" width="171.54" y="376.91" x="1528.3" stroke-width="1pt"/><rect id="rect939" fill-rule="evenodd" height="2768.8" width="131.37" y="404.6" x="1548.3" stroke-width="1pt" fill="#efef00"/><g id="g940" transform="translate(9.3838 -.000030518)"><rect id="rect941" fill-rule="evenodd" height="2852.7" width="56.303" y="357.96" x="1482.6" stroke-width="1pt"/><rect id="rect942" fill-rule="evenodd" height="2802" width="15.952" y="383.29" x="1502.8" stroke-width="1pt" fill="#efef00"/></g><g id="g943" transform="translate(197.06 -.000030518)"><rect id="rect944" fill-rule="evenodd" height="2852.7" width="56.303" y="357.96" x="1482.6" stroke-width="1pt"/><rect id="rect945" fill-rule="evenodd" height="2802" width="15.952" y="383.29" x="1502.8" stroke-width="1pt" fill="#efef00"/></g></g><g id="g928" transform="matrix(-.78495 .83247 -.34476 -.23585 2811.1 622.21)"><rect id="rect929" fill-rule="evenodd" height="2824.2" width="171.54" y="376.91" x="1528.3" stroke-width="1pt"/><rect id="rect930" fill-rule="evenodd" height="2768.8" width="131.37" y="404.6" x="1548.3" stroke-width="1pt" fill="#efef00"/><g id="g931" transform="translate(9.3838 -.000030518)"><rect id="rect932" fill-rule="evenodd" height="2852.7" width="56.303" y="357.96" x="1482.6" stroke-width="1pt"/><rect id="rect933" fill-rule="evenodd" height="2802" width="15.952" y="383.29" x="1502.8" stroke-width="1pt" fill="#efef00"/></g><g id="g934" transform="translate(197.06 -.000030518)"><rect id="rect935" fill-rule="evenodd" height="2852.7" width="56.303" y="357.96" x="1482.6" stroke-width="1pt"/><rect id="rect936" fill-rule="evenodd" height="2802" width="15.952" y="383.29" x="1502.8" stroke-width="1pt" fill="#efef00"/></g></g><g id="g606" transform="translate(3443.9 797.63)"><path id="path607" d="m-576.02-680.03c0.472 617.58-500.34 1118.8-1117.9 1118.8-617.58 0.981-1119.2-499.44-1119.7-1117-1.49-617.6 498.53-1119.6 1116.1-1120.6 617.58-1.96 1120 497.67 1121.5 1115.2 0.026 1.253 0.026 2.31 0.026 3.564zm262.44-0.001c0.582 762.45-617.7 1381.2-1380.1 1381.2-762.44 1.211-1381.8-616.6-1382.3-1379-1.85-762.47 615.47-1382.2 1377.9-1383.4 762.45-2.42 1382.7 614.41 1384.5 1376.8 0.032 1.547 0.032 2.852 0.032 4.399z" fill-opacity=".99967" fill-rule="evenodd" transform="translate(-149.86 1690.5)" stroke-width="1pt" fill="#efef00"/><path id="path608" stroke-width="1pt" fill-rule="evenodd" transform="matrix(.98 0 0 .98 -781.88 -1562.1)" d="m296.75 2625.1c0.582 762.45-617.7 1381.2-1380.1 1381.2-762.45 1.21-1381.8-616.6-1382.4-1379-1.84-762.46 615.48-1382.2 1378-1383.4 762.45-2.42 1382.7 614.41 1384.5 1376.8 0.032 1.55 0.032 2.86 0.032 4.4zm-27.624 0c0.57 747.2-605.35 1353.6-1352.5 1353.6-747.2 1.18-1354.1-604.27-1354.7-1351.5-1.81-747.21 603.16-1354.6 1350.4-1355.8 747.2-2.38 1355 602.11 1356.8 1349.3 0.032 1.52 0.032 2.8 0.032 4.31z"/><path id="path609" stroke-width="1pt" fill-rule="evenodd" transform="matrix(.85016 0 0 .85016 -922.69 -1221.3)" d="m296.75 2625.1c0.582 762.45-617.7 1381.2-1380.1 1381.2-762.45 1.21-1381.8-616.6-1382.4-1379-1.84-762.46 615.48-1382.2 1378-1383.4 762.45-2.42 1382.7 614.41 1384.5 1376.8 0.032 1.55 0.032 2.86 0.032 4.4zm-27.624 0c0.57 747.2-605.35 1353.6-1352.5 1353.6-747.2 1.18-1354.1-604.27-1354.7-1351.5-1.81-747.21 603.16-1354.6 1350.4-1355.8 747.2-2.38 1355 602.11 1356.8 1349.3 0.032 1.52 0.032 2.8 0.032 4.31z"/></g><g id="g883" transform="matrix(1 0 0 .98355 9.3838 52.807)"><rect id="rect872" fill-rule="evenodd" height="2824.2" width="171.54" y="376.91" x="1528.3" stroke-width="1pt"/><rect id="rect871" fill-rule="evenodd" height="2768.8" width="131.37" y="404.6" x="1548.3" stroke-width="1pt" fill="#efef00"/><g id="g877" transform="translate(9.3838 -.000030518)"><rect id="rect875" fill-rule="evenodd" height="2852.7" width="56.303" y="357.96" x="1482.6" stroke-width="1pt"/><rect id="rect876" fill-rule="evenodd" height="2802" width="15.952" y="383.29" x="1502.8" stroke-width="1pt" fill="#efef00"/></g><g id="g880" transform="translate(197.06 -.000030518)"><rect id="rect881" fill-rule="evenodd" height="2852.7" width="56.303" y="357.96" x="1482.6" stroke-width="1pt"/><rect id="rect882" fill-rule="evenodd" height="2802" width="15.952" y="383.29" x="1502.8" stroke-width="1pt" fill="#efef00"/></g></g><g id="g892" transform="matrix(.37140 1.0146 -.43278 .088917 1148.7 461.89)"><rect id="rect893" fill-rule="evenodd" height="2824.2" width="171.54" y="376.91" x="1528.3" stroke-width="1pt"/><rect id="rect894" fill-rule="evenodd" height="2768.8" width="131.37" y="404.6" x="1548.3" stroke-width="1pt" fill="#efef00"/><g id="g895" transform="translate(9.3838 -.000030518)"><rect id="rect896" fill-rule="evenodd" height="2852.7" width="56.303" y="357.96" x="1482.6" stroke-width="1pt"/><rect id="rect897" fill-rule="evenodd" height="2802" width="15.952" y="383.29" x="1502.8" stroke-width="1pt" fill="#efef00"/></g><g id="g1963" transform="translate(197.06 -.000030518)"><rect id="rect899" fill-rule="evenodd" height="2852.7" width="56.303" y="357.96" x="1482.6" stroke-width="1pt"/><rect id="rect1965" fill-rule="evenodd" height="2802" width="15.952" y="383.29" x="1502.8" stroke-width="1pt" fill="#efef00"/></g></g><g id="g901" transform="matrix(.048179 1.0353 -.45375 .049280 1585.8 -73.118)"><rect id="rect902" fill-rule="evenodd" height="2824.2" width="171.54" y="376.91" x="1528.3" stroke-width="1pt"/><rect id="rect1968" fill-rule="evenodd" height="2768.8" width="131.37" y="404.6" x="1548.3" stroke-width="1pt" fill="#efef00"/><g id="g904" transform="translate(9.3838 -.000030518)"><rect id="rect905" fill-rule="evenodd" height="2852.7" width="56.303" y="357.96" x="1482.6" stroke-width="1pt"/><rect id="rect906" fill-rule="evenodd" height="2802" width="15.952" y="383.29" x="1502.8" stroke-width="1pt" fill="#efef00"/></g><g id="g907" transform="translate(197.06 -.000030518)"><rect id="rect908" fill-rule="evenodd" height="2852.7" width="56.303" y="357.96" x="1482.6" stroke-width="1pt"/><rect id="rect909" fill-rule="evenodd" height="2802" width="15.952" y="383.29" x="1502.8" stroke-width="1pt" fill="#efef00"/></g></g><g id="g910" transform="matrix(-.61913 .96221 -.38214 -.16868 2610.1 86.531)"><rect id="rect911" fill-rule="evenodd" height="2824.2" width="171.54" y="376.91" x="1528.3" stroke-width="1pt"/><rect id="rect912" fill-rule="evenodd" height="2768.8" width="131.37" y="404.6" x="1548.3" stroke-width="1pt" fill="#efef00"/><g id="g1978" transform="translate(9.3838 -.000030518)"><rect id="rect1979" fill-rule="evenodd" height="2852.7" width="56.303" y="357.96" x="1482.6" stroke-width="1pt"/><rect id="rect915" fill-rule="evenodd" height="2802" width="15.952" y="383.29" x="1502.8" stroke-width="1pt" fill="#efef00"/></g><g id="g1981" transform="translate(197.06 -.000030518)"><rect id="rect1982" fill-rule="evenodd" height="2852.7" width="56.303" y="357.96" x="1482.6" stroke-width="1pt"/><rect id="rect918" fill-rule="evenodd" height="2802" width="15.952" y="383.29" x="1502.8" stroke-width="1pt" fill="#efef00"/></g></g><g id="g946" transform="matrix(-.013401 1.0347 -.45603 -.022150 3190.7 -29.14)"><rect id="rect947" fill-rule="evenodd" height="2824.2" width="171.54" y="376.91" x="1528.3" stroke-width="1pt"/><rect id="rect948" fill-rule="evenodd" height="2768.8" width="131.37" y="404.6" x="1548.3" stroke-width="1pt" fill="#efef00"/><g id="g949" transform="translate(9.3838 -.000030518)"><rect id="rect950" fill-rule="evenodd" height="2852.7" width="56.303" y="357.96" x="1482.6" stroke-width="1pt"/><rect id="rect951" fill-rule="evenodd" height="2802" width="15.952" y="383.29" x="1502.8" stroke-width="1pt" fill="#efef00"/></g><g id="g952" transform="translate(197.06 -.000030518)"><rect id="rect953" fill-rule="evenodd" height="2852.7" width="56.303" y="357.96" x="1482.6" stroke-width="1pt"/><rect id="rect954" fill-rule="evenodd" height="2802" width="15.952" y="383.29" x="1502.8" stroke-width="1pt" fill="#efef00"/></g></g><g id="g964" transform="matrix(.29417 .92656 -.37653 -.011881 2458.6 -379.7)"><rect id="rect965" fill-rule="evenodd" height="2824.2" width="171.54" y="376.91" x="1528.3" stroke-width="1pt"/><rect id="rect966" fill-rule="evenodd" height="2768.8" width="131.37" y="404.6" x="1548.3" stroke-width="1pt" fill="#efef00"/><g id="g967" transform="translate(9.3838 -.000030518)"><rect id="rect968" fill-rule="evenodd" height="2852.7" width="56.303" y="357.96" x="1482.6" stroke-width="1pt"/><rect id="rect969" fill-rule="evenodd" height="2802" width="15.952" y="383.29" x="1502.8" stroke-width="1pt" fill="#efef00"/></g><g id="g970" transform="translate(197.06 -.000030518)"><rect id="rect971" fill-rule="evenodd" height="2852.7" width="56.303" y="357.96" x="1482.6" stroke-width="1pt"/><rect id="rect972" fill-rule="evenodd" height="2802" width="15.952" y="383.29" x="1502.8" stroke-width="1pt" fill="#efef00"/></g></g><g id="g973" transform="matrix(-.44645 .96157 -.41974 -.15349 3749.8 876.84)"><rect id="rect974" fill-rule="evenodd" height="2824.2" width="171.54" y="376.91" x="1528.3" stroke-width="1pt"/><rect id="rect975" fill-rule="evenodd" height="2768.8" width="131.37" y="404.6" x="1548.3" stroke-width="1pt" fill="#efef00"/><g id="g976" transform="translate(9.3838 -.000030518)"><rect id="rect977" fill-rule="evenodd" height="2852.7" width="56.303" y="357.96" x="1482.6" stroke-width="1pt"/><rect id="rect978" fill-rule="evenodd" height="2802" width="15.952" y="383.29" x="1502.8" stroke-width="1pt" fill="#efef00"/></g><g id="g979" transform="translate(197.06 -.000030518)"><rect id="rect980" fill-rule="evenodd" height="2852.7" width="56.303" y="357.96" x="1482.6" stroke-width="1pt"/><rect id="rect981" fill-rule="evenodd" height="2802" width="15.952" y="383.29" x="1502.8" stroke-width="1pt" fill="#efef00"/></g></g><g id="g1287"><g id="g2012" transform="translate(388.6 -627.37)"><g id="g2013" transform="translate(1261.6 8670.4)" fill="#f6f6fb"><g id="g2014"><rect id="rect2015" fill-rule="evenodd" height="1171.1" width="1590.9" y="-7147" x="-850.89" stroke-width="1pt"/><ellipse id="path2016" d="m 3601.6224,4267.3076 c 0,384.4008 -331.4036,696.0192 -740.2108,696.0192 -408.8071,0 -740.2108,-311.6184 -740.2108,-696.0192 0,-384.4008 331.4037,-696.0191 740.2108,-696.0191 408.8072,0 740.2108,311.6183 740.2108,696.0191 z" fill-rule="evenodd" rx="740.21" transform="matrix(1.0746 0 0 1.0635 -3130.4 -10547)" ry="696.02" cy="4267.3" cx="2861.4" stroke-width="1pt"/></g><g id="g2017" transform="translate(-5963.8 -3463.6)"><rect id="rect2018" fill-rule="evenodd" height="632.38" width="859.09" y="-3340.7" x="5478.8" stroke-width="1pt"/><ellipse id="path2019" d="m 3601.6224,4267.3076 c 0,384.4008 -331.4036,696.0192 -740.2108,696.0192 -408.8071,0 -740.2108,-311.6184 -740.2108,-696.0192 0,-384.4008 331.4037,-696.0191 740.2108,-696.0191 408.8072,0 740.2108,311.6183 740.2108,696.0191 z" fill-rule="evenodd" rx="740.21" transform="matrix(.58030 0 0 .57429 4247.9 -5088.5)" ry="696.02" cy="4267.3" cx="2861.4" stroke-width="1pt"/></g></g><g id="g2020" transform="translate(-4610.5 4587.5)"><g id="g2021" transform="matrix(.95 0 0 .95 5869.2 3772.5)" fill="#f00"><g id="g2022"><rect id="rect2023" fill-rule="evenodd" height="1171.1" width="1590.9" y="-7147" x="-850.89" stroke-width="1pt"/><ellipse id="path2024" d="m 3601.6224,4267.3076 c 0,384.4008 -331.4036,696.0192 -740.2108,696.0192 -408.8071,0 -740.2108,-311.6184 -740.2108,-696.0192 0,-384.4008 331.4037,-696.0191 740.2108,-696.0191 408.8072,0 740.2108,311.6183 740.2108,696.0191 z" fill-rule="evenodd" rx="740.21" transform="matrix(1.0746 0 0 1.0635 -3130.4 -10547)" ry="696.02" cy="4267.3" cx="2861.4" stroke-width="1pt"/></g><g id="g2025" transform="translate(-5963.8 -3463.6)"><rect id="rect2026" fill-rule="evenodd" height="632.38" width="859.09" y="-3340.7" x="5478.8" stroke-width="1pt"/><ellipse id="path2027" d="m 3601.6224,4267.3076 c 0,384.4008 -331.4036,696.0192 -740.2108,696.0192 -408.8071,0 -740.2108,-311.6184 -740.2108,-696.0192 0,-384.4008 331.4037,-696.0191 740.2108,-696.0191 408.8072,0 740.2108,311.6183 740.2108,696.0191 z" fill-rule="evenodd" rx="740.21" transform="matrix(.58030 0 0 .57429 4247.9 -5088.5)" ry="696.02" cy="4267.3" cx="2861.4" stroke-width="1pt"/></g></g><g id="g2028" transform="matrix(.567 0 0 .567 5848 1394.8)" fill="#400"><g id="g2029"><rect id="rect2030" fill-rule="evenodd" height="1171.1" width="1590.9" y="-7147" x="-850.89" stroke-width="1pt"/><ellipse id="path2031" d="m 3601.6224,4267.3076 c 0,384.4008 -331.4036,696.0192 -740.2108,696.0192 -408.8071,0 -740.2108,-311.6184 -740.2108,-696.0192 0,-384.4008 331.4037,-696.0191 740.2108,-696.0191 408.8072,0 740.2108,311.6183 740.2108,696.0191 z" fill-rule="evenodd" rx="740.21" transform="matrix(1.0746 0 0 1.0635 -3130.4 -10547)" ry="696.02" cy="4267.3" cx="2861.4" stroke-width="1pt"/></g><g id="g2032" transform="translate(-5963.8 -3463.6)"><rect id="rect2033" fill-rule="evenodd" height="632.38" width="859.09" y="-3340.7" x="5478.8" stroke-width="1pt"/><ellipse id="path2034" d="m 3601.6224,4267.3076 c 0,384.4008 -331.4036,696.0192 -740.2108,696.0192 -408.8071,0 -740.2108,-311.6184 -740.2108,-696.0192 0,-384.4008 331.4037,-696.0191 740.2108,-696.0191 408.8072,0 740.2108,311.6183 740.2108,696.0191 z" fill-rule="evenodd" rx="740.21" transform="matrix(.58030 0 0 .57429 4247.9 -5088.5)" ry="696.02" cy="4267.3" cx="2861.4" stroke-width="1pt"/></g></g><g id="g2035" transform="matrix(.51172 0 0 .51172 5844.9 1051.6)" fill="#fff"><g id="g2036"><rect id="rect2037" fill-rule="evenodd" height="1171.1" width="1590.9" y="-7147" x="-850.89" stroke-width="1pt"/><ellipse id="path2038" d="m 3601.6224,4267.3076 c 0,384.4008 -331.4036,696.0192 -740.2108,696.0192 -408.8071,0 -740.2108,-311.6184 -740.2108,-696.0192 0,-384.4008 331.4037,-696.0191 740.2108,-696.0191 408.8072,0 740.2108,311.6183 740.2108,696.0191 z" fill-rule="evenodd" rx="740.21" transform="matrix(1.0746 0 0 1.0635 -3130.4 -10547)" ry="696.02" cy="4267.3" cx="2861.4" stroke-width="1pt"/></g><g id="g2039" transform="translate(-5963.8 -3463.6)"><rect id="rect2040" fill-rule="evenodd" height="632.38" width="859.09" y="-3340.7" x="5478.8" stroke-width="1pt"/><ellipse id="path2041" d="m 3601.6224,4267.3076 c 0,384.4008 -331.4036,696.0192 -740.2108,696.0192 -408.8071,0 -740.2108,-311.6184 -740.2108,-696.0192 0,-384.4008 331.4037,-696.0191 740.2108,-696.0191 408.8072,0 740.2108,311.6183 740.2108,696.0191 z" fill-rule="evenodd" rx="740.21" transform="matrix(.58030 0 0 .57429 4247.9 -5088.5)" ry="696.02" cy="4267.3" cx="2861.4" stroke-width="1pt"/></g></g></g></g><g id="g2042" transform="translate(-1370 3907.3)"><g id="g2043" transform="matrix(.15 0 0 .15 2790 -2140.7)" fill="#3b3bff"><g id="g2044" transform="translate(1261.6 8670.4)"><g id="g2045"><rect id="rect2046" fill-rule="evenodd" height="1171.1" width="1590.9" y="-7147" x="-850.89" stroke-width="1pt"/><ellipse id="path2047" d="m 3601.6224,4267.3076 c 0,384.4008 -331.4036,696.0192 -740.2108,696.0192 -408.8071,0 -740.2108,-311.6184 -740.2108,-696.0192 0,-384.4008 331.4037,-696.0191 740.2108,-696.0191 408.8072,0 740.2108,311.6183 740.2108,696.0191 z" fill-rule="evenodd" rx="740.21" transform="matrix(1.0746 0 0 1.0635 -3130.4 -10547)" ry="696.02" cy="4267.3" cx="2861.4" stroke-width="1pt"/></g><g id="g2048" transform="translate(-5963.8 -3463.6)"><rect id="rect2049" fill-rule="evenodd" height="632.38" width="859.09" y="-3340.7" x="5478.8" stroke-width="1pt"/><ellipse id="path2050" d="m 3601.6224,4267.3076 c 0,384.4008 -331.4036,696.0192 -740.2108,696.0192 -408.8071,0 -740.2108,-311.6184 -740.2108,-696.0192 0,-384.4008 331.4037,-696.0191 740.2108,-696.0191 408.8072,0 740.2108,311.6183 740.2108,696.0191 z" fill-rule="evenodd" rx="740.21" transform="matrix(.58030 0 0 .57429 4247.9 -5088.5)" ry="696.02" cy="4267.3" cx="2861.4" stroke-width="1pt"/></g></g><g id="g2051" transform="translate(-4610.5 4587.5)"><g id="g2052" transform="matrix(.95 0 0 .95 5869.2 3772.5)"><g id="g2053"><rect id="rect2054" fill-rule="evenodd" height="1171.1" width="1590.9" y="-7147" x="-850.89" stroke-width="1pt"/><ellipse id="path2055" d="m 3601.6224,4267.3076 c 0,384.4008 -331.4036,696.0192 -740.2108,696.0192 -408.8071,0 -740.2108,-311.6184 -740.2108,-696.0192 0,-384.4008 331.4037,-696.0191 740.2108,-696.0191 408.8072,0 740.2108,311.6183 740.2108,696.0191 z" fill-rule="evenodd" rx="740.21" transform="matrix(1.0746 0 0 1.0635 -3130.4 -10547)" ry="696.02" cy="4267.3" cx="2861.4" stroke-width="1pt"/></g><g id="g2056" transform="translate(-5963.8 -3463.6)"><rect id="rect2057" fill-rule="evenodd" height="632.38" width="859.09" y="-3340.7" x="5478.8" stroke-width="1pt"/><ellipse id="path2058" d="m 3601.6224,4267.3076 c 0,384.4008 -331.4036,696.0192 -740.2108,696.0192 -408.8071,0 -740.2108,-311.6184 -740.2108,-696.0192 0,-384.4008 331.4037,-696.0191 740.2108,-696.0191 408.8072,0 740.2108,311.6183 740.2108,696.0191 z" fill-rule="evenodd" rx="740.21" transform="matrix(.58030 0 0 .57429 4247.9 -5088.5)" ry="696.02" cy="4267.3" cx="2861.4" stroke-width="1pt"/></g></g><g id="g2059" transform="matrix(.567 0 0 .567 5848 1394.8)"><g id="g2060"><rect id="rect2061" fill-rule="evenodd" height="1171.1" width="1590.9" y="-7147" x="-850.89" stroke-width="1pt"/><ellipse id="path2062" d="m 3601.6224,4267.3076 c 0,384.4008 -331.4036,696.0192 -740.2108,696.0192 -408.8071,0 -740.2108,-311.6184 -740.2108,-696.0192 0,-384.4008 331.4037,-696.0191 740.2108,-696.0191 408.8072,0 740.2108,311.6183 740.2108,696.0191 z" fill-rule="evenodd" rx="740.21" transform="matrix(1.0746 0 0 1.0635 -3130.4 -10547)" ry="696.02" cy="4267.3" cx="2861.4" stroke-width="1pt"/></g><g id="g2063" transform="translate(-5963.8 -3463.6)"><rect id="rect2064" fill-rule="evenodd" height="632.38" width="859.09" y="-3340.7" x="5478.8" stroke-width="1pt"/><ellipse id="path2065" d="m 3601.6224,4267.3076 c 0,384.4008 -331.4036,696.0192 -740.2108,696.0192 -408.8071,0 -740.2108,-311.6184 -740.2108,-696.0192 0,-384.4008 331.4037,-696.0191 740.2108,-696.0191 408.8072,0 740.2108,311.6183 740.2108,696.0191 z" fill-rule="evenodd" rx="740.21" transform="matrix(.58030 0 0 .57429 4247.9 -5088.5)" ry="696.02" cy="4267.3" cx="2861.4" stroke-width="1pt"/></g></g><g id="g2066" transform="matrix(.51172 0 0 .51172 5844.9 1051.6)"><g id="g2067"><rect id="rect2068" fill-rule="evenodd" height="1171.1" width="1590.9" y="-7147" x="-850.89" stroke-width="1pt"/><ellipse id="path2069" d="m 3601.6224,4267.3076 c 0,384.4008 -331.4036,696.0192 -740.2108,696.0192 -408.8071,0 -740.2108,-311.6184 -740.2108,-696.0192 0,-384.4008 331.4037,-696.0191 740.2108,-696.0191 408.8072,0 740.2108,311.6183 740.2108,696.0191 z" fill-rule="evenodd" rx="740.21" transform="matrix(1.0746 0 0 1.0635 -3130.4 -10547)" ry="696.02" cy="4267.3" cx="2861.4" stroke-width="1pt"/></g><g id="g2070" transform="translate(-5963.8 -3463.6)"><rect id="rect2071" fill-rule="evenodd" height="632.38" width="859.09" y="-3340.7" x="5478.8" stroke-width="1pt"/><ellipse id="path2072" d="m 3601.6224,4267.3076 c 0,384.4008 -331.4036,696.0192 -740.2108,696.0192 -408.8071,0 -740.2108,-311.6184 -740.2108,-696.0192 0,-384.4008 331.4037,-696.0191 740.2108,-696.0191 408.8072,0 740.2108,311.6183 740.2108,696.0191 z" fill-rule="evenodd" rx="740.21" transform="matrix(.58030 0 0 .57429 4247.9 -5088.5)" ry="696.02" cy="4267.3" cx="2861.4" stroke-width="1pt"/></g></g></g></g><ellipse id="path2073" d="m 2938.7051,-1854.9092 c 0,19.71 -15.9781,35.6881 -35.688,35.6881 -19.7099,0 -35.688,-15.9781 -35.688,-35.6881 0,-19.7099 15.9781,-35.688 35.688,-35.688 19.7099,0 35.688,15.9781 35.688,35.688 z" fill-rule="evenodd" rx="35.688" transform="translate(-3.7817 -7.5629)" ry="35.688" cy="-1854.9" cx="2903" stroke-width="1pt" fill="#fff"/><ellipse id="path2074" d="m 2938.7051,-1854.9092 c 0,19.71 -15.9781,35.6881 -35.688,35.6881 -19.7099,0 -35.688,-15.9781 -35.688,-35.6881 0,-19.7099 15.9781,-35.688 35.688,-35.688 19.7099,0 35.688,15.9781 35.688,35.688 z" fill-rule="evenodd" rx="35.688" transform="translate(129.99 -7.5629)" ry="35.688" cy="-1854.9" cx="2903" stroke-width="1pt" fill="#fff"/><ellipse id="path2075" d="m 2938.7051,-1854.9092 c 0,19.71 -15.9781,35.6881 -35.688,35.6881 -19.7099,0 -35.688,-15.9781 -35.688,-35.6881 0,-19.7099 15.9781,-35.688 35.688,-35.688 19.7099,0 35.688,15.9781 35.688,35.688 z" fill-rule="evenodd" rx="35.688" transform="translate(61.922 67.595)" ry="35.688" cy="-1854.9" cx="2903" stroke-width="1pt" fill="#fff"/><ellipse id="path2076" d="m 2938.7051,-1854.9092 c 0,19.71 -15.9781,35.6881 -35.688,35.6881 -19.7099,0 -35.688,-15.9781 -35.688,-35.6881 0,-19.7099 15.9781,-35.688 35.688,-35.688 19.7099,0 35.688,15.9781 35.688,35.688 z" fill-rule="evenodd" rx="35.688" transform="translate(1.4179 140.39)" ry="35.688" cy="-1854.9" cx="2903" stroke-width="1pt" fill="#fff"/><ellipse id="path2077" d="m 2938.7051,-1854.9092 c 0,19.71 -15.9781,35.6881 -35.688,35.6881 -19.7099,0 -35.688,-15.9781 -35.688,-35.6881 0,-19.7099 15.9781,-35.688 35.688,-35.688 19.7099,0 35.688,15.9781 35.688,35.688 z" fill-rule="evenodd" rx="35.688" transform="translate(128.57 142.75)" ry="35.688" cy="-1854.9" cx="2903" stroke-width="1pt" fill="#fff"/></g><path id="path2078" d="m-433.9 545.04v22.689h302.52v-22.689h-302.52zm26.249-62.601v63.152h257.14v-63.152h-257.14zm-22.688 207.62v22.692h302.52v-22.692h-302.52zm81.069-7.017c-0.031-41.191 31.622-74.621 70.654-74.621 39.033-0.066 70.737 33.311 70.768 74.502 0 0.327-0.001 0.602-0.004 0.928m-149.28 3.292c-0.034-45.769 35.136-82.913 78.505-82.913 43.37-0.073 78.596 37.012 78.63 82.78 0.001 0.363 0 0.669-0.004 1.031m-207.65-114.09v113.44h257.14v-113.44h-257.14zm-26.26-113.15v21.46h302.52v-21.46h-302.52zm-0.027-30.268v30.484h23.308v-30.484h-23.308zm279.36 0v30.484h23.308v-30.484h-23.308zm-232.9 0.612v30.484h23.308v-30.484h-23.308zm185.22-0.618v30.484h23.308v-30.484h-23.308zm-139.99-28.725v30.484h23.308v-30.484h-23.308zm92.917-0.006v30.484h23.308v-30.484h-23.308zm-45.236-0.612v30.484h23.308v-30.484h-23.308zm-47.745 31.32v29.144h116.15v-29.144h-116.15z" fill-rule="evenodd" transform="translate(1296.7 561.41)" stroke-width="1pt" fill="#ff0"/><g id="g2079" transform="translate(1302.4 561.96)"><rect id="rect2080" fill-rule="evenodd" height="30.484" width="23.308" y="477.6" x="-348.96" stroke-width="1pt" fill="#f00"/><rect id="rect2081" fill-rule="evenodd" height="30.484" width="23.308" y="476.98" x="-244.43" stroke-width="1pt" fill="#f00"/></g><path id="path2082" d="m-433.9 545.04v22.689h302.52v-22.689h-302.52zm26.249-62.601v63.152h257.14v-63.152h-257.14zm-22.688 207.62v22.692h302.52v-22.692h-302.52zm81.069-7.017c-0.031-41.191 31.622-74.621 70.654-74.621 39.033-0.066 70.737 33.311 70.768 74.502 0 0.327-0.001 0.602-0.004 0.928m-149.28 3.292c-0.034-45.769 35.136-82.913 78.505-82.913 43.37-0.073 78.596 37.012 78.63 82.78 0.001 0.363 0 0.669-0.004 1.031m-207.65-114.09v113.44h257.14v-113.44h-257.14zm-26.26-113.15v21.46h302.52v-21.46h-302.52zm-0.027-30.268v30.484h23.308v-30.484h-23.308zm279.36 0v30.484h23.308v-30.484h-23.308zm-232.9 0.612v30.484h23.308v-30.484h-23.308zm185.22-0.618v30.484h23.308v-30.484h-23.308zm-139.99-28.725v30.484h23.308v-30.484h-23.308zm92.917-0.006v30.484h23.308v-30.484h-23.308zm-45.236-0.612v30.484h23.308v-30.484h-23.308zm-47.745 31.32v29.144h116.15v-29.144h-116.15z" fill-rule="evenodd" transform="translate(2457.9 565.04)" stroke-width="1pt" fill="#ff0"/><g id="g2083" transform="translate(2463.5 565.59)"><rect id="rect2084" fill-rule="evenodd" height="30.484" width="23.308" y="477.6" x="-348.96" stroke-width="1pt" fill="#f00"/><rect id="rect2085" fill-rule="evenodd" height="30.484" width="23.308" y="476.98" x="-244.43" stroke-width="1pt" fill="#f00"/></g><path id="path2086" d="m-433.9 545.04v22.689h302.52v-22.689h-302.52zm26.249-62.601v63.152h257.14v-63.152h-257.14zm-22.688 207.62v22.692h302.52v-22.692h-302.52zm81.069-7.017c-0.031-41.191 31.622-74.621 70.654-74.621 39.033-0.066 70.737 33.311 70.768 74.502 0 0.327-0.001 0.602-0.004 0.928m-149.28 3.292c-0.034-45.769 35.136-82.913 78.505-82.913 43.37-0.073 78.596 37.012 78.63 82.78 0.001 0.363 0 0.669-0.004 1.031m-207.65-114.09v113.44h257.14v-113.44h-257.14zm-26.26-113.15v21.46h302.52v-21.46h-302.52zm-0.027-30.268v30.484h23.308v-30.484h-23.308zm279.36 0v30.484h23.308v-30.484h-23.308zm-232.9 0.612v30.484h23.308v-30.484h-23.308zm185.22-0.618v30.484h23.308v-30.484h-23.308zm-139.99-28.725v30.484h23.308v-30.484h-23.308zm92.917-0.006v30.484h23.308v-30.484h-23.308zm-45.236-0.612v30.484h23.308v-30.484h-23.308zm-47.745 31.32v29.144h116.15v-29.144h-116.15z" fill-rule="evenodd" transform="translate(1888.2 565.04)" stroke-width="1pt" fill="#ff0"/><g id="g2087" transform="translate(1893.8 565.59)"><rect id="rect2088" fill-rule="evenodd" height="30.484" width="23.308" y="477.6" x="-348.96" stroke-width="1pt" fill="#f00"/><rect id="rect2089" fill-rule="evenodd" height="30.484" width="23.308" y="476.98" x="-244.43" stroke-width="1pt" fill="#f00"/></g><path id="path2090" d="m-433.9 545.04v22.689h302.52v-22.689h-302.52zm26.249-62.601v63.152h257.14v-63.152h-257.14zm-22.688 207.62v22.692h302.52v-22.692h-302.52zm81.069-7.017c-0.031-41.191 31.622-74.621 70.654-74.621 39.033-0.066 70.737 33.311 70.768 74.502 0 0.327-0.001 0.602-0.004 0.928m-149.28 3.292c-0.034-45.769 35.136-82.913 78.505-82.913 43.37-0.073 78.596 37.012 78.63 82.78 0.001 0.363 0 0.669-0.004 1.031m-207.65-114.09v113.44h257.14v-113.44h-257.14zm-26.26-113.15v21.46h302.52v-21.46h-302.52zm-0.027-30.268v30.484h23.308v-30.484h-23.308zm279.36 0v30.484h23.308v-30.484h-23.308zm-232.9 0.612v30.484h23.308v-30.484h-23.308zm185.22-0.618v30.484h23.308v-30.484h-23.308zm-139.99-28.725v30.484h23.308v-30.484h-23.308zm92.917-0.006v30.484h23.308v-30.484h-23.308zm-45.236-0.612v30.484h23.308v-30.484h-23.308zm-47.745 31.32v29.144h116.15v-29.144h-116.15z" fill-rule="evenodd" transform="translate(1271.3 1272.6)" stroke-width="1pt" fill="#ff0"/><g id="g2091" transform="translate(1277 1273.2)"><rect id="rect2092" fill-rule="evenodd" height="30.484" width="23.308" y="477.6" x="-348.96" stroke-width="1pt" fill="#f00"/><rect id="rect2093" fill-rule="evenodd" height="30.484" width="23.308" y="476.98" x="-244.43" stroke-width="1pt" fill="#f00"/></g><path id="path2094" d="m-433.9 545.04v22.689h302.52v-22.689h-302.52zm26.249-62.601v63.152h257.14v-63.152h-257.14zm-22.688 207.62v22.692h302.52v-22.692h-302.52zm81.069-7.017c-0.031-41.191 31.622-74.621 70.654-74.621 39.033-0.066 70.737 33.311 70.768 74.502 0 0.327-0.001 0.602-0.004 0.928m-149.28 3.292c-0.034-45.769 35.136-82.913 78.505-82.913 43.37-0.073 78.596 37.012 78.63 82.78 0.001 0.363 0 0.669-0.004 1.031m-207.65-114.09v113.44h257.14v-113.44h-257.14zm-26.26-113.15v21.46h302.52v-21.46h-302.52zm-0.027-30.268v30.484h23.308v-30.484h-23.308zm279.36 0v30.484h23.308v-30.484h-23.308zm-232.9 0.612v30.484h23.308v-30.484h-23.308zm185.22-0.618v30.484h23.308v-30.484h-23.308zm-139.99-28.725v30.484h23.308v-30.484h-23.308zm92.917-0.006v30.484h23.308v-30.484h-23.308zm-45.236-0.612v30.484h23.308v-30.484h-23.308zm-47.745 31.32v29.144h116.15v-29.144h-116.15z" fill-rule="evenodd" transform="translate(2479.7 1265.4)" stroke-width="1pt" fill="#ff0"/><g id="g2095" transform="translate(2485.3 1265.9)"><rect id="rect2096" fill-rule="evenodd" height="30.484" width="23.308" y="477.6" x="-348.96" stroke-width="1pt" fill="#f00"/><rect id="rect2097" fill-rule="evenodd" height="30.484" width="23.308" y="476.98" x="-244.43" stroke-width="1pt" fill="#f00"/></g><path id="path2098" d="m-433.9 545.04v22.689h302.52v-22.689h-302.52zm26.249-62.601v63.152h257.14v-63.152h-257.14zm-22.688 207.62v22.692h302.52v-22.692h-302.52zm81.069-7.017c-0.031-41.191 31.622-74.621 70.654-74.621 39.033-0.066 70.737 33.311 70.768 74.502 0 0.327-0.001 0.602-0.004 0.928m-149.28 3.292c-0.034-45.769 35.136-82.913 78.505-82.913 43.37-0.073 78.596 37.012 78.63 82.78 0.001 0.363 0 0.669-0.004 1.031m-207.65-114.09v113.44h257.14v-113.44h-257.14zm-26.26-113.15v21.46h302.52v-21.46h-302.52zm-0.027-30.268v30.484h23.308v-30.484h-23.308zm279.36 0v30.484h23.308v-30.484h-23.308zm-232.9 0.612v30.484h23.308v-30.484h-23.308zm185.22-0.618v30.484h23.308v-30.484h-23.308zm-139.99-28.725v30.484h23.308v-30.484h-23.308zm92.917-0.006v30.484h23.308v-30.484h-23.308zm-45.236-0.612v30.484h23.308v-30.484h-23.308zm-47.745 31.32v29.144h116.15v-29.144h-116.15z" fill-rule="evenodd" transform="matrix(.65276 -.75757 .75757 .65276 969.57 1819.3)" stroke-width="1pt" fill="#ff0"/><g id="g2099" transform="matrix(.65276 -.75757 .75757 .65276 973.66 1815.4)"><rect id="rect2100" fill-rule="evenodd" height="30.484" width="23.308" y="477.6" x="-348.96" stroke-width="1pt" fill="#f00"/><rect id="rect2101" fill-rule="evenodd" height="30.484" width="23.308" y="476.98" x="-244.43" stroke-width="1pt" fill="#f00"/></g><path id="path2102" d="m-433.9 545.04v22.689h302.52v-22.689h-302.52zm26.249-62.601v63.152h257.14v-63.152h-257.14zm-22.688 207.62v22.692h302.52v-22.692h-302.52zm81.069-7.017c-0.031-41.191 31.622-74.621 70.654-74.621 39.033-0.066 70.737 33.311 70.768 74.502 0 0.327-0.001 0.602-0.004 0.928m-149.28 3.292c-0.034-45.769 35.136-82.913 78.505-82.913 43.37-0.073 78.596 37.012 78.63 82.78 0.001 0.363 0 0.669-0.004 1.031m-207.65-114.09v113.44h257.14v-113.44h-257.14zm-26.26-113.15v21.46h302.52v-21.46h-302.52zm-0.027-30.268v30.484h23.308v-30.484h-23.308zm279.36 0v30.484h23.308v-30.484h-23.308zm-232.9 0.612v30.484h23.308v-30.484h-23.308zm185.22-0.618v30.484h23.308v-30.484h-23.308zm-139.99-28.725v30.484h23.308v-30.484h-23.308zm92.917-0.006v30.484h23.308v-30.484h-23.308zm-45.236-0.612v30.484h23.308v-30.484h-23.308zm-47.745 31.32v29.144h116.15v-29.144h-116.15z" fill-rule="evenodd" transform="matrix(-.65276 -.75757 -.75757 .65276 2231 1815.7)" stroke-width="1pt" fill="#ff0"/><g id="g2103" transform="matrix(-.65276 -.75757 -.75757 .65276 2226.9 1811.8)"><rect id="rect2104" fill-rule="evenodd" height="30.484" width="23.308" y="477.6" x="-348.96" stroke-width="1pt" fill="#f00"/><rect id="rect2105" fill-rule="evenodd" height="30.484" width="23.308" y="476.98" x="-244.43" stroke-width="1pt" fill="#f00"/></g><g id="g2106" transform="translate(-1377.6 3272)"><g id="g2107" transform="translate(3.7814 11.344)"><g id="g2108" transform="matrix(.15 0 0 .15 2790 -2140.7)" fill="#3b3bff"><g id="g2109" transform="translate(1261.6 8670.4)"><g id="g2110"><rect id="rect2111" fill-rule="evenodd" height="1171.1" width="1590.9" y="-7147" x="-850.89" stroke-width="1pt"/><ellipse id="path2112" d="m 3601.6224,4267.3076 c 0,384.4008 -331.4036,696.0192 -740.2108,696.0192 -408.8071,0 -740.2108,-311.6184 -740.2108,-696.0192 0,-384.4008 331.4037,-696.0191 740.2108,-696.0191 408.8072,0 740.2108,311.6183 740.2108,696.0191 z" fill-rule="evenodd" rx="740.21" transform="matrix(1.0746 0 0 1.0635 -3130.4 -10547)" ry="696.02" cy="4267.3" cx="2861.4" stroke-width="1pt"/></g><g id="g2113" transform="translate(-5963.8 -3463.6)"><rect id="rect2114" fill-rule="evenodd" height="632.38" width="859.09" y="-3340.7" x="5478.8" stroke-width="1pt"/><ellipse id="path2115" d="m 3601.6224,4267.3076 c 0,384.4008 -331.4036,696.0192 -740.2108,696.0192 -408.8071,0 -740.2108,-311.6184 -740.2108,-696.0192 0,-384.4008 331.4037,-696.0191 740.2108,-696.0191 408.8072,0 740.2108,311.6183 740.2108,696.0191 z" fill-rule="evenodd" rx="740.21" transform="matrix(.58030 0 0 .57429 4247.9 -5088.5)" ry="696.02" cy="4267.3" cx="2861.4" stroke-width="1pt"/></g></g><g id="g2116" transform="translate(-4610.5 4587.5)"><g id="g2117" transform="matrix(.95 0 0 .95 5869.2 3772.5)"><g id="g2118"><rect id="rect1155" fill-rule="evenodd" height="1171.1" width="1590.9" y="-7147" x="-850.89" stroke-width="1pt"/><ellipse id="path2120" d="m 3601.6224,4267.3076 c 0,384.4008 -331.4036,696.0192 -740.2108,696.0192 -408.8071,0 -740.2108,-311.6184 -740.2108,-696.0192 0,-384.4008 331.4037,-696.0191 740.2108,-696.0191 408.8072,0 740.2108,311.6183 740.2108,696.0191 z" fill-rule="evenodd" rx="740.21" transform="matrix(1.0746 0 0 1.0635 -3130.4 -10547)" ry="696.02" cy="4267.3" cx="2861.4" stroke-width="1pt"/></g><g id="g2121" transform="translate(-5963.8 -3463.6)"><rect id="rect1158" fill-rule="evenodd" height="632.38" width="859.09" y="-3340.7" x="5478.8" stroke-width="1pt"/><ellipse id="path2123" d="m 3601.6224,4267.3076 c 0,384.4008 -331.4036,696.0192 -740.2108,696.0192 -408.8071,0 -740.2108,-311.6184 -740.2108,-696.0192 0,-384.4008 331.4037,-696.0191 740.2108,-696.0191 408.8072,0 740.2108,311.6183 740.2108,696.0191 z" fill-rule="evenodd" rx="740.21" transform="matrix(.58030 0 0 .57429 4247.9 -5088.5)" ry="696.02" cy="4267.3" cx="2861.4" stroke-width="1pt"/></g></g><g id="g2124" transform="matrix(.567 0 0 .567 5848 1394.8)"><g id="g2125"><rect id="rect2126" fill-rule="evenodd" height="1171.1" width="1590.9" y="-7147" x="-850.89" stroke-width="1pt"/><ellipse id="path2127" d="m 3601.6224,4267.3076 c 0,384.4008 -331.4036,696.0192 -740.2108,696.0192 -408.8071,0 -740.2108,-311.6184 -740.2108,-696.0192 0,-384.4008 331.4037,-696.0191 740.2108,-696.0191 408.8072,0 740.2108,311.6183 740.2108,696.0191 z" fill-rule="evenodd" rx="740.21" transform="matrix(1.0746 0 0 1.0635 -3130.4 -10547)" ry="696.02" cy="4267.3" cx="2861.4" stroke-width="1pt"/></g><g id="g2128" transform="translate(-5963.8 -3463.6)"><rect id="rect2129" fill-rule="evenodd" height="632.38" width="859.09" y="-3340.7" x="5478.8" stroke-width="1pt"/><ellipse id="path2130" d="m 3601.6224,4267.3076 c 0,384.4008 -331.4036,696.0192 -740.2108,696.0192 -408.8071,0 -740.2108,-311.6184 -740.2108,-696.0192 0,-384.4008 331.4037,-696.0191 740.2108,-696.0191 408.8072,0 740.2108,311.6183 740.2108,696.0191 z" fill-rule="evenodd" rx="740.21" transform="matrix(.58030 0 0 .57429 4247.9 -5088.5)" ry="696.02" cy="4267.3" cx="2861.4" stroke-width="1pt"/></g></g><g id="g2131" transform="matrix(.51172 0 0 .51172 5844.9 1051.6)"><g id="g1168"><rect id="rect1169" fill-rule="evenodd" height="1171.1" width="1590.9" y="-7147" x="-850.89" stroke-width="1pt"/><ellipse id="path2134" d="m 3601.6224,4267.3076 c 0,384.4008 -331.4036,696.0192 -740.2108,696.0192 -408.8071,0 -740.2108,-311.6184 -740.2108,-696.0192 0,-384.4008 331.4037,-696.0191 740.2108,-696.0191 408.8072,0 740.2108,311.6183 740.2108,696.0191 z" fill-rule="evenodd" rx="740.21" transform="matrix(1.0746 0 0 1.0635 -3130.4 -10547)" ry="696.02" cy="4267.3" cx="2861.4" stroke-width="1pt"/></g><g id="g2135" transform="translate(-5963.8 -3463.6)"><rect id="rect2136" fill-rule="evenodd" height="632.38" width="859.09" y="-3340.7" x="5478.8" stroke-width="1pt"/><ellipse id="path2137" d="m 3601.6224,4267.3076 c 0,384.4008 -331.4036,696.0192 -740.2108,696.0192 -408.8071,0 -740.2108,-311.6184 -740.2108,-696.0192 0,-384.4008 331.4037,-696.0191 740.2108,-696.0191 408.8072,0 740.2108,311.6183 740.2108,696.0191 z" fill-rule="evenodd" rx="740.21" transform="matrix(.58030 0 0 .57429 4247.9 -5088.5)" ry="696.02" cy="4267.3" cx="2861.4" stroke-width="1pt"/></g></g></g></g><ellipse id="path2138" d="m 2938.7051,-1854.9092 c 0,19.71 -15.9781,35.6881 -35.688,35.6881 -19.7099,0 -35.688,-15.9781 -35.688,-35.6881 0,-19.7099 15.9781,-35.688 35.688,-35.688 19.7099,0 35.688,15.9781 35.688,35.688 z" fill-rule="evenodd" rx="35.688" transform="translate(-3.7817 -7.5629)" ry="35.688" cy="-1854.9" cx="2903" stroke-width="1pt" fill="#fff"/><ellipse id="path2139" d="m 2938.7051,-1854.9092 c 0,19.71 -15.9781,35.6881 -35.688,35.6881 -19.7099,0 -35.688,-15.9781 -35.688,-35.6881 0,-19.7099 15.9781,-35.688 35.688,-35.688 19.7099,0 35.688,15.9781 35.688,35.688 z" fill-rule="evenodd" rx="35.688" transform="translate(129.99 -7.5629)" ry="35.688" cy="-1854.9" cx="2903" stroke-width="1pt" fill="#fff"/><ellipse id="path2140" d="m 2938.7051,-1854.9092 c 0,19.71 -15.9781,35.6881 -35.688,35.6881 -19.7099,0 -35.688,-15.9781 -35.688,-35.6881 0,-19.7099 15.9781,-35.688 35.688,-35.688 19.7099,0 35.688,15.9781 35.688,35.688 z" fill-rule="evenodd" rx="35.688" transform="translate(61.922 67.595)" ry="35.688" cy="-1854.9" cx="2903" stroke-width="1pt" fill="#fff"/><ellipse id="path2141" d="m 2938.7051,-1854.9092 c 0,19.71 -15.9781,35.6881 -35.688,35.6881 -19.7099,0 -35.688,-15.9781 -35.688,-35.6881 0,-19.7099 15.9781,-35.688 35.688,-35.688 19.7099,0 35.688,15.9781 35.688,35.688 z" fill-rule="evenodd" rx="35.688" transform="translate(1.4179 140.39)" ry="35.688" cy="-1854.9" cx="2903" stroke-width="1pt" fill="#fff"/><ellipse id="path2142" d="m 2938.7051,-1854.9092 c 0,19.71 -15.9781,35.6881 -35.688,35.6881 -19.7099,0 -35.688,-15.9781 -35.688,-35.6881 0,-19.7099 15.9781,-35.688 35.688,-35.688 19.7099,0 35.688,15.9781 35.688,35.688 z" fill-rule="evenodd" rx="35.688" transform="translate(128.57 142.75)" ry="35.688" cy="-1854.9" cx="2903" stroke-width="1pt" fill="#fff"/></g><g id="g2143" transform="translate(3.7817 321.43)"><g id="g2144" transform="matrix(.15 0 0 .15 2790 -2140.7)" fill="#3b3bff"><g id="g2145" transform="translate(1261.6 8670.4)"><g id="g2146"><rect id="rect2147" fill-rule="evenodd" height="1171.1" width="1590.9" y="-7147" x="-850.89" stroke-width="1pt"/><ellipse id="path2148" d="m 3601.6224,4267.3076 c 0,384.4008 -331.4036,696.0192 -740.2108,696.0192 -408.8071,0 -740.2108,-311.6184 -740.2108,-696.0192 0,-384.4008 331.4037,-696.0191 740.2108,-696.0191 408.8072,0 740.2108,311.6183 740.2108,696.0191 z" fill-rule="evenodd" rx="740.21" transform="matrix(1.0746 0 0 1.0635 -3130.4 -10547)" ry="696.02" cy="4267.3" cx="2861.4" stroke-width="1pt"/></g><g id="g2149" transform="translate(-5963.8 -3463.6)"><rect id="rect2150" fill-rule="evenodd" height="632.38" width="859.09" y="-3340.7" x="5478.8" stroke-width="1pt"/><ellipse id="path2151" d="m 3601.6224,4267.3076 c 0,384.4008 -331.4036,696.0192 -740.2108,696.0192 -408.8071,0 -740.2108,-311.6184 -740.2108,-696.0192 0,-384.4008 331.4037,-696.0191 740.2108,-696.0191 408.8072,0 740.2108,311.6183 740.2108,696.0191 z" fill-rule="evenodd" rx="740.21" transform="matrix(.58030 0 0 .57429 4247.9 -5088.5)" ry="696.02" cy="4267.3" cx="2861.4" stroke-width="1pt"/></g></g><g id="g2152" transform="translate(-4610.5 4587.5)"><g id="g2153" transform="matrix(.95 0 0 .95 5869.2 3772.5)"><g id="g2154"><rect id="rect2155" fill-rule="evenodd" height="1171.1" width="1590.9" y="-7147" x="-850.89" stroke-width="1pt"/><ellipse id="path2156" d="m 3601.6224,4267.3076 c 0,384.4008 -331.4036,696.0192 -740.2108,696.0192 -408.8071,0 -740.2108,-311.6184 -740.2108,-696.0192 0,-384.4008 331.4037,-696.0191 740.2108,-696.0191 408.8072,0 740.2108,311.6183 740.2108,696.0191 z" fill-rule="evenodd" rx="740.21" transform="matrix(1.0746 0 0 1.0635 -3130.4 -10547)" ry="696.02" cy="4267.3" cx="2861.4" stroke-width="1pt"/></g><g id="g2157" transform="translate(-5963.8 -3463.6)"><rect id="rect2158" fill-rule="evenodd" height="632.38" width="859.09" y="-3340.7" x="5478.8" stroke-width="1pt"/><ellipse id="path2159" d="m 3601.6224,4267.3076 c 0,384.4008 -331.4036,696.0192 -740.2108,696.0192 -408.8071,0 -740.2108,-311.6184 -740.2108,-696.0192 0,-384.4008 331.4037,-696.0191 740.2108,-696.0191 408.8072,0 740.2108,311.6183 740.2108,696.0191 z" fill-rule="evenodd" rx="740.21" transform="matrix(.58030 0 0 .57429 4247.9 -5088.5)" ry="696.02" cy="4267.3" cx="2861.4" stroke-width="1pt"/></g></g><g id="g2160" transform="matrix(.567 0 0 .567 5848 1394.8)"><g id="g2161"><rect id="rect2162" fill-rule="evenodd" height="1171.1" width="1590.9" y="-7147" x="-850.89" stroke-width="1pt"/><ellipse id="path2163" d="m 3601.6224,4267.3076 c 0,384.4008 -331.4036,696.0192 -740.2108,696.0192 -408.8071,0 -740.2108,-311.6184 -740.2108,-696.0192 0,-384.4008 331.4037,-696.0191 740.2108,-696.0191 408.8072,0 740.2108,311.6183 740.2108,696.0191 z" fill-rule="evenodd" rx="740.21" transform="matrix(1.0746 0 0 1.0635 -3130.4 -10547)" ry="696.02" cy="4267.3" cx="2861.4" stroke-width="1pt"/></g><g id="g2164" transform="translate(-5963.8 -3463.6)"><rect id="rect2165" fill-rule="evenodd" height="632.38" width="859.09" y="-3340.7" x="5478.8" stroke-width="1pt"/><ellipse id="path2166" d="m 3601.6224,4267.3076 c 0,384.4008 -331.4036,696.0192 -740.2108,696.0192 -408.8071,0 -740.2108,-311.6184 -740.2108,-696.0192 0,-384.4008 331.4037,-696.0191 740.2108,-696.0191 408.8072,0 740.2108,311.6183 740.2108,696.0191 z" fill-rule="evenodd" rx="740.21" transform="matrix(.58030 0 0 .57429 4247.9 -5088.5)" ry="696.02" cy="4267.3" cx="2861.4" stroke-width="1pt"/></g></g><g id="g2167" transform="matrix(.51172 0 0 .51172 5844.9 1051.6)"><g id="g2168"><rect id="rect2169" fill-rule="evenodd" height="1171.1" width="1590.9" y="-7147" x="-850.89" stroke-width="1pt"/><ellipse id="path2170" d="m 3601.6224,4267.3076 c 0,384.4008 -331.4036,696.0192 -740.2108,696.0192 -408.8071,0 -740.2108,-311.6184 -740.2108,-696.0192 0,-384.4008 331.4037,-696.0191 740.2108,-696.0191 408.8072,0 740.2108,311.6183 740.2108,696.0191 z" fill-rule="evenodd" rx="740.21" transform="matrix(1.0746 0 0 1.0635 -3130.4 -10547)" ry="696.02" cy="4267.3" cx="2861.4" stroke-width="1pt"/></g><g id="g2171" transform="translate(-5963.8 -3463.6)"><rect id="rect2172" fill-rule="evenodd" height="632.38" width="859.09" y="-3340.7" x="5478.8" stroke-width="1pt"/><ellipse id="path2173" d="m 3601.6224,4267.3076 c 0,384.4008 -331.4036,696.0192 -740.2108,696.0192 -408.8071,0 -740.2108,-311.6184 -740.2108,-696.0192 0,-384.4008 331.4037,-696.0191 740.2108,-696.0191 408.8072,0 740.2108,311.6183 740.2108,696.0191 z" fill-rule="evenodd" rx="740.21" transform="matrix(.58030 0 0 .57429 4247.9 -5088.5)" ry="696.02" cy="4267.3" cx="2861.4" stroke-width="1pt"/></g></g></g></g><ellipse id="path2174" d="m 2938.7051,-1854.9092 c 0,19.71 -15.9781,35.6881 -35.688,35.6881 -19.7099,0 -35.688,-15.9781 -35.688,-35.6881 0,-19.7099 15.9781,-35.688 35.688,-35.688 19.7099,0 35.688,15.9781 35.688,35.688 z" fill-rule="evenodd" rx="35.688" transform="translate(-3.7817 -7.5629)" ry="35.688" cy="-1854.9" cx="2903" stroke-width="1pt" fill="#fff"/><ellipse id="path2175" d="m 2938.7051,-1854.9092 c 0,19.71 -15.9781,35.6881 -35.688,35.6881 -19.7099,0 -35.688,-15.9781 -35.688,-35.6881 0,-19.7099 15.9781,-35.688 35.688,-35.688 19.7099,0 35.688,15.9781 35.688,35.688 z" fill-rule="evenodd" rx="35.688" transform="translate(129.99 -7.5629)" ry="35.688" cy="-1854.9" cx="2903" stroke-width="1pt" fill="#fff"/><ellipse id="path2176" d="m 2938.7051,-1854.9092 c 0,19.71 -15.9781,35.6881 -35.688,35.6881 -19.7099,0 -35.688,-15.9781 -35.688,-35.6881 0,-19.7099 15.9781,-35.688 35.688,-35.688 19.7099,0 35.688,15.9781 35.688,35.688 z" fill-rule="evenodd" rx="35.688" transform="translate(61.922 67.595)" ry="35.688" cy="-1854.9" cx="2903" stroke-width="1pt" fill="#fff"/><ellipse id="path2177" d="m 2938.7051,-1854.9092 c 0,19.71 -15.9781,35.6881 -35.688,35.6881 -19.7099,0 -35.688,-15.9781 -35.688,-35.6881 0,-19.7099 15.9781,-35.688 35.688,-35.688 19.7099,0 35.688,15.9781 35.688,35.688 z" fill-rule="evenodd" rx="35.688" transform="translate(1.4179 140.39)" ry="35.688" cy="-1854.9" cx="2903" stroke-width="1pt" fill="#fff"/><ellipse id="path2178" d="m 2938.7051,-1854.9092 c 0,19.71 -15.9781,35.6881 -35.688,35.6881 -19.7099,0 -35.688,-15.9781 -35.688,-35.6881 0,-19.7099 15.9781,-35.688 35.688,-35.688 19.7099,0 35.688,15.9781 35.688,35.688 z" fill-rule="evenodd" rx="35.688" transform="translate(128.57 142.75)" ry="35.688" cy="-1854.9" cx="2903" stroke-width="1pt" fill="#fff"/></g><g id="g1215" transform="translate(268.49 321.43)"><g id="g2180" transform="matrix(.15 0 0 .15 2790 -2140.7)" fill="#3b3bff"><g id="g2181" transform="translate(1261.6 8670.4)"><g id="g2182"><rect id="rect2183" fill-rule="evenodd" height="1171.1" width="1590.9" y="-7147" x="-850.89" stroke-width="1pt"/><ellipse id="path2184" d="m 3601.6224,4267.3076 c 0,384.4008 -331.4036,696.0192 -740.2108,696.0192 -408.8071,0 -740.2108,-311.6184 -740.2108,-696.0192 0,-384.4008 331.4037,-696.0191 740.2108,-696.0191 408.8072,0 740.2108,311.6183 740.2108,696.0191 z" fill-rule="evenodd" rx="740.21" transform="matrix(1.0746 0 0 1.0635 -3130.4 -10547)" ry="696.02" cy="4267.3" cx="2861.4" stroke-width="1pt"/></g><g id="g2185" transform="translate(-5963.8 -3463.6)"><rect id="rect2186" fill-rule="evenodd" height="632.38" width="859.09" y="-3340.7" x="5478.8" stroke-width="1pt"/><ellipse id="path2187" d="m 3601.6224,4267.3076 c 0,384.4008 -331.4036,696.0192 -740.2108,696.0192 -408.8071,0 -740.2108,-311.6184 -740.2108,-696.0192 0,-384.4008 331.4037,-696.0191 740.2108,-696.0191 408.8072,0 740.2108,311.6183 740.2108,696.0191 z" fill-rule="evenodd" rx="740.21" transform="matrix(.58030 0 0 .57429 4247.9 -5088.5)" ry="696.02" cy="4267.3" cx="2861.4" stroke-width="1pt"/></g></g><g id="g2188" transform="translate(-4610.5 4587.5)"><g id="g2189" transform="matrix(.95 0 0 .95 5869.2 3772.5)"><g id="g2190"><rect id="rect2191" fill-rule="evenodd" height="1171.1" width="1590.9" y="-7147" x="-850.89" stroke-width="1pt"/><ellipse id="path2192" d="m 3601.6224,4267.3076 c 0,384.4008 -331.4036,696.0192 -740.2108,696.0192 -408.8071,0 -740.2108,-311.6184 -740.2108,-696.0192 0,-384.4008 331.4037,-696.0191 740.2108,-696.0191 408.8072,0 740.2108,311.6183 740.2108,696.0191 z" fill-rule="evenodd" rx="740.21" transform="matrix(1.0746 0 0 1.0635 -3130.4 -10547)" ry="696.02" cy="4267.3" cx="2861.4" stroke-width="1pt"/></g><g id="g2193" transform="translate(-5963.8 -3463.6)"><rect id="rect2194" fill-rule="evenodd" height="632.38" width="859.09" y="-3340.7" x="5478.8" stroke-width="1pt"/><ellipse id="path2195" d="m 3601.6224,4267.3076 c 0,384.4008 -331.4036,696.0192 -740.2108,696.0192 -408.8071,0 -740.2108,-311.6184 -740.2108,-696.0192 0,-384.4008 331.4037,-696.0191 740.2108,-696.0191 408.8072,0 740.2108,311.6183 740.2108,696.0191 z" fill-rule="evenodd" rx="740.21" transform="matrix(.58030 0 0 .57429 4247.9 -5088.5)" ry="696.02" cy="4267.3" cx="2861.4" stroke-width="1pt"/></g></g><g id="g2196" transform="matrix(.567 0 0 .567 5848 1394.8)"><g id="g1233"><rect id="rect1234" fill-rule="evenodd" height="1171.1" width="1590.9" y="-7147" x="-850.89" stroke-width="1pt"/><ellipse id="path2199" d="m 3601.6224,4267.3076 c 0,384.4008 -331.4036,696.0192 -740.2108,696.0192 -408.8071,0 -740.2108,-311.6184 -740.2108,-696.0192 0,-384.4008 331.4037,-696.0191 740.2108,-696.0191 408.8072,0 740.2108,311.6183 740.2108,696.0191 z" fill-rule="evenodd" rx="740.21" transform="matrix(1.0746 0 0 1.0635 -3130.4 -10547)" ry="696.02" cy="4267.3" cx="2861.4" stroke-width="1pt"/></g><g id="g2200" transform="translate(-5963.8 -3463.6)"><rect id="rect2201" fill-rule="evenodd" height="632.38" width="859.09" y="-3340.7" x="5478.8" stroke-width="1pt"/><ellipse id="path2202" d="m 3601.6224,4267.3076 c 0,384.4008 -331.4036,696.0192 -740.2108,696.0192 -408.8071,0 -740.2108,-311.6184 -740.2108,-696.0192 0,-384.4008 331.4037,-696.0191 740.2108,-696.0191 408.8072,0 740.2108,311.6183 740.2108,696.0191 z" fill-rule="evenodd" rx="740.21" transform="matrix(.58030 0 0 .57429 4247.9 -5088.5)" ry="696.02" cy="4267.3" cx="2861.4" stroke-width="1pt"/></g></g><g id="g2203" transform="matrix(.51172 0 0 .51172 5844.9 1051.6)"><g id="g2204"><rect id="rect2205" fill-rule="evenodd" height="1171.1" width="1590.9" y="-7147" x="-850.89" stroke-width="1pt"/><ellipse id="path2206" d="m 3601.6224,4267.3076 c 0,384.4008 -331.4036,696.0192 -740.2108,696.0192 -408.8071,0 -740.2108,-311.6184 -740.2108,-696.0192 0,-384.4008 331.4037,-696.0191 740.2108,-696.0191 408.8072,0 740.2108,311.6183 740.2108,696.0191 z" fill-rule="evenodd" rx="740.21" transform="matrix(1.0746 0 0 1.0635 -3130.4 -10547)" ry="696.02" cy="4267.3" cx="2861.4" stroke-width="1pt"/></g><g id="g2207" transform="translate(-5963.8 -3463.6)"><rect id="rect2208" fill-rule="evenodd" height="632.38" width="859.09" y="-3340.7" x="5478.8" stroke-width="1pt"/><ellipse id="path2209" d="m 3601.6224,4267.3076 c 0,384.4008 -331.4036,696.0192 -740.2108,696.0192 -408.8071,0 -740.2108,-311.6184 -740.2108,-696.0192 0,-384.4008 331.4037,-696.0191 740.2108,-696.0191 408.8072,0 740.2108,311.6183 740.2108,696.0191 z" fill-rule="evenodd" rx="740.21" transform="matrix(.58030 0 0 .57429 4247.9 -5088.5)" ry="696.02" cy="4267.3" cx="2861.4" stroke-width="1pt"/></g></g></g></g><ellipse id="path2210" d="m 2938.7051,-1854.9092 c 0,19.71 -15.9781,35.6881 -35.688,35.6881 -19.7099,0 -35.688,-15.9781 -35.688,-35.6881 0,-19.7099 15.9781,-35.688 35.688,-35.688 19.7099,0 35.688,15.9781 35.688,35.688 z" fill-rule="evenodd" rx="35.688" transform="translate(-3.7817 -7.5629)" ry="35.688" cy="-1854.9" cx="2903" stroke-width="1pt" fill="#fff"/><ellipse id="path2211" d="m 2938.7051,-1854.9092 c 0,19.71 -15.9781,35.6881 -35.688,35.6881 -19.7099,0 -35.688,-15.9781 -35.688,-35.6881 0,-19.7099 15.9781,-35.688 35.688,-35.688 19.7099,0 35.688,15.9781 35.688,35.688 z" fill-rule="evenodd" rx="35.688" transform="translate(129.99 -7.5629)" ry="35.688" cy="-1854.9" cx="2903" stroke-width="1pt" fill="#fff"/><ellipse id="path2212" d="m 2938.7051,-1854.9092 c 0,19.71 -15.9781,35.6881 -35.688,35.6881 -19.7099,0 -35.688,-15.9781 -35.688,-35.6881 0,-19.7099 15.9781,-35.688 35.688,-35.688 19.7099,0 35.688,15.9781 35.688,35.688 z" fill-rule="evenodd" rx="35.688" transform="translate(61.922 67.595)" ry="35.688" cy="-1854.9" cx="2903" stroke-width="1pt" fill="#fff"/><ellipse id="path2213" d="m 2938.7051,-1854.9092 c 0,19.71 -15.9781,35.6881 -35.688,35.6881 -19.7099,0 -35.688,-15.9781 -35.688,-35.6881 0,-19.7099 15.9781,-35.688 35.688,-35.688 19.7099,0 35.688,15.9781 35.688,35.688 z" fill-rule="evenodd" rx="35.688" transform="translate(1.4179 140.39)" ry="35.688" cy="-1854.9" cx="2903" stroke-width="1pt" fill="#fff"/><ellipse id="path2214" d="m 2938.7051,-1854.9092 c 0,19.71 -15.9781,35.6881 -35.688,35.6881 -19.7099,0 -35.688,-15.9781 -35.688,-35.6881 0,-19.7099 15.9781,-35.688 35.688,-35.688 19.7099,0 35.688,15.9781 35.688,35.688 z" fill-rule="evenodd" rx="35.688" transform="translate(128.57 142.75)" ry="35.688" cy="-1854.9" cx="2903" stroke-width="1pt" fill="#fff"/></g><g id="g2215" transform="translate(-260.92 321.43)"><g id="g2216" transform="matrix(.15 0 0 .15 2790 -2140.7)" fill="#3b3bff"><g id="g2217" transform="translate(1261.6 8670.4)"><g id="g2218"><rect id="rect2219" fill-rule="evenodd" height="1171.1" width="1590.9" y="-7147" x="-850.89" stroke-width="1pt"/><ellipse id="path2220" d="m 3601.6224,4267.3076 c 0,384.4008 -331.4036,696.0192 -740.2108,696.0192 -408.8071,0 -740.2108,-311.6184 -740.2108,-696.0192 0,-384.4008 331.4037,-696.0191 740.2108,-696.0191 408.8072,0 740.2108,311.6183 740.2108,696.0191 z" fill-rule="evenodd" rx="740.21" transform="matrix(1.0746 0 0 1.0635 -3130.4 -10547)" ry="696.02" cy="4267.3" cx="2861.4" stroke-width="1pt"/></g><g id="g2221" transform="translate(-5963.8 -3463.6)"><rect id="rect2222" fill-rule="evenodd" height="632.38" width="859.09" y="-3340.7" x="5478.8" stroke-width="1pt"/><ellipse id="path2223" d="m 3601.6224,4267.3076 c 0,384.4008 -331.4036,696.0192 -740.2108,696.0192 -408.8071,0 -740.2108,-311.6184 -740.2108,-696.0192 0,-384.4008 331.4037,-696.0191 740.2108,-696.0191 408.8072,0 740.2108,311.6183 740.2108,696.0191 z" fill-rule="evenodd" rx="740.21" transform="matrix(.58030 0 0 .57429 4247.9 -5088.5)" ry="696.02" cy="4267.3" cx="2861.4" stroke-width="1pt"/></g></g><g id="g2224" transform="translate(-4610.5 4587.5)"><g id="g2225" transform="matrix(.95 0 0 .95 5869.2 3772.5)"><g id="g2226"><rect id="rect2227" fill-rule="evenodd" height="1171.1" width="1590.9" y="-7147" x="-850.89" stroke-width="1pt"/><ellipse id="path2228" d="m 3601.6224,4267.3076 c 0,384.4008 -331.4036,696.0192 -740.2108,696.0192 -408.8071,0 -740.2108,-311.6184 -740.2108,-696.0192 0,-384.4008 331.4037,-696.0191 740.2108,-696.0191 408.8072,0 740.2108,311.6183 740.2108,696.0191 z" fill-rule="evenodd" rx="740.21" transform="matrix(1.0746 0 0 1.0635 -3130.4 -10547)" ry="696.02" cy="4267.3" cx="2861.4" stroke-width="1pt"/></g><g id="g2229" transform="translate(-5963.8 -3463.6)"><rect id="rect2230" fill-rule="evenodd" height="632.38" width="859.09" y="-3340.7" x="5478.8" stroke-width="1pt"/><ellipse id="path2231" d="m 3601.6224,4267.3076 c 0,384.4008 -331.4036,696.0192 -740.2108,696.0192 -408.8071,0 -740.2108,-311.6184 -740.2108,-696.0192 0,-384.4008 331.4037,-696.0191 740.2108,-696.0191 408.8072,0 740.2108,311.6183 740.2108,696.0191 z" fill-rule="evenodd" rx="740.21" transform="matrix(.58030 0 0 .57429 4247.9 -5088.5)" ry="696.02" cy="4267.3" cx="2861.4" stroke-width="1pt"/></g></g><g id="g2232" transform="matrix(.567 0 0 .567 5848 1394.8)"><g id="g2233"><rect id="rect2234" fill-rule="evenodd" height="1171.1" width="1590.9" y="-7147" x="-850.89" stroke-width="1pt"/><ellipse id="path2235" d="m 3601.6224,4267.3076 c 0,384.4008 -331.4036,696.0192 -740.2108,696.0192 -408.8071,0 -740.2108,-311.6184 -740.2108,-696.0192 0,-384.4008 331.4037,-696.0191 740.2108,-696.0191 408.8072,0 740.2108,311.6183 740.2108,696.0191 z" fill-rule="evenodd" rx="740.21" transform="matrix(1.0746 0 0 1.0635 -3130.4 -10547)" ry="696.02" cy="4267.3" cx="2861.4" stroke-width="1pt"/></g><g id="g2236" transform="translate(-5963.8 -3463.6)"><rect id="rect2237" fill-rule="evenodd" height="632.38" width="859.09" y="-3340.7" x="5478.8" stroke-width="1pt"/><ellipse id="path2238" d="m 3601.6224,4267.3076 c 0,384.4008 -331.4036,696.0192 -740.2108,696.0192 -408.8071,0 -740.2108,-311.6184 -740.2108,-696.0192 0,-384.4008 331.4037,-696.0191 740.2108,-696.0191 408.8072,0 740.2108,311.6183 740.2108,696.0191 z" fill-rule="evenodd" rx="740.21" transform="matrix(.58030 0 0 .57429 4247.9 -5088.5)" ry="696.02" cy="4267.3" cx="2861.4" stroke-width="1pt"/></g></g><g id="g2239" transform="matrix(.51172 0 0 .51172 5844.9 1051.6)"><g id="g2240"><rect id="rect2241" fill-rule="evenodd" height="1171.1" width="1590.9" y="-7147" x="-850.89" stroke-width="1pt"/><ellipse id="path2242" d="m 3601.6224,4267.3076 c 0,384.4008 -331.4036,696.0192 -740.2108,696.0192 -408.8071,0 -740.2108,-311.6184 -740.2108,-696.0192 0,-384.4008 331.4037,-696.0191 740.2108,-696.0191 408.8072,0 740.2108,311.6183 740.2108,696.0191 z" fill-rule="evenodd" rx="740.21" transform="matrix(1.0746 0 0 1.0635 -3130.4 -10547)" ry="696.02" cy="4267.3" cx="2861.4" stroke-width="1pt"/></g><g id="g2243" transform="translate(-5963.8 -3463.6)"><rect id="rect2244" fill-rule="evenodd" height="632.38" width="859.09" y="-3340.7" x="5478.8" stroke-width="1pt"/><ellipse id="path2245" d="m 3601.6224,4267.3076 c 0,384.4008 -331.4036,696.0192 -740.2108,696.0192 -408.8071,0 -740.2108,-311.6184 -740.2108,-696.0192 0,-384.4008 331.4037,-696.0191 740.2108,-696.0191 408.8072,0 740.2108,311.6183 740.2108,696.0191 z" fill-rule="evenodd" rx="740.21" transform="matrix(.58030 0 0 .57429 4247.9 -5088.5)" ry="696.02" cy="4267.3" cx="2861.4" stroke-width="1pt"/></g></g></g></g><ellipse id="path2246" d="m 2938.7051,-1854.9092 c 0,19.71 -15.9781,35.6881 -35.688,35.6881 -19.7099,0 -35.688,-15.9781 -35.688,-35.6881 0,-19.7099 15.9781,-35.688 35.688,-35.688 19.7099,0 35.688,15.9781 35.688,35.688 z" fill-rule="evenodd" rx="35.688" transform="translate(-3.7817 -7.5629)" ry="35.688" cy="-1854.9" cx="2903" stroke-width="1pt" fill="#fff"/><ellipse id="path2247" d="m 2938.7051,-1854.9092 c 0,19.71 -15.9781,35.6881 -35.688,35.6881 -19.7099,0 -35.688,-15.9781 -35.688,-35.6881 0,-19.7099 15.9781,-35.688 35.688,-35.688 19.7099,0 35.688,15.9781 35.688,35.688 z" fill-rule="evenodd" rx="35.688" transform="translate(129.99 -7.5629)" ry="35.688" cy="-1854.9" cx="2903" stroke-width="1pt" fill="#fff"/><ellipse id="path2248" d="m 2938.7051,-1854.9092 c 0,19.71 -15.9781,35.6881 -35.688,35.6881 -19.7099,0 -35.688,-15.9781 -35.688,-35.6881 0,-19.7099 15.9781,-35.688 35.688,-35.688 19.7099,0 35.688,15.9781 35.688,35.688 z" fill-rule="evenodd" rx="35.688" transform="translate(61.922 67.595)" ry="35.688" cy="-1854.9" cx="2903" stroke-width="1pt" fill="#fff"/><ellipse id="path2249" d="m 2938.7051,-1854.9092 c 0,19.71 -15.9781,35.6881 -35.688,35.6881 -19.7099,0 -35.688,-15.9781 -35.688,-35.6881 0,-19.7099 15.9781,-35.688 35.688,-35.688 19.7099,0 35.688,15.9781 35.688,35.688 z" fill-rule="evenodd" rx="35.688" transform="translate(1.4179 140.39)" ry="35.688" cy="-1854.9" cx="2903" stroke-width="1pt" fill="#fff"/><ellipse id="path2250" d="m 2938.7051,-1854.9092 c 0,19.71 -15.9781,35.6881 -35.688,35.6881 -19.7099,0 -35.688,-15.9781 -35.688,-35.6881 0,-19.7099 15.9781,-35.688 35.688,-35.688 19.7099,0 35.688,15.9781 35.688,35.688 z" fill-rule="evenodd" rx="35.688" transform="translate(128.57 142.75)" ry="35.688" cy="-1854.9" cx="2903" stroke-width="1pt" fill="#fff"/></g></g></g></g></g></g>
  <g id="02" transform="translate(0,38)"><path id="path3862-8" style="color:#000000" fill="url(#linearGradient5125)" d="m214.21 111.21c-45.245 0.18809-68.716 7.7308-64.094 83.553l2.8252 46.345c47.474 5.5124 56.664 18.445 104.36 21.914 68.073 4.9513 67.937 5.4209 130.56-14.384 62.628-19.805 5.8248-65.247 207.32-57.82 4.6033 0.16968 17.314-3.0527 27.462-12.15 5.5817-46.524-2.7842-69.143-66.934-68.876z"/><path id="path3079-9" style="color:#000000" fill="url(#linearGradient5122)" d="m531.03 495.17c-31.605 19.022-27.601 31.26-37.913 32.573-94.704 12.053-145.98-0.72701-165.8-12.061-59.588-34.078-68.468-13.014-100.22-16.574-20.115-2.2551-59.245 12.984-73.388 44.344 3.4722 27.608 18.111 32.098 44.281 31.986l356.06-1.5268c69.692-0.29885 56.335-8.4926 65.543-56.039-14.772-21.671-13.157 9.109-44.224-30.717z"/><rect id="rect5734" transform="translate(128,90)" clip-path="url(#clipPath5796)" ry="57" height="512" filter="url(#filter5740)" width="512" stroke="#000" y="0" x="0" stroke-width="20" fill="none"/></g>
 </g>
  <metadata>
    <rdf:RDF>
      <cc:Work>
        <dc:format>image/svg+xml</dc:format>
        <dc:type rdf:resource="http://purl.org/dc/dcmitype/StillImage"/>
        <cc:license rdf:resource="http://creativecommons.org/licenses/publicdomain/"/>
        <dc:publisher>
          <cc:Agent rdf:about="http://openclipart.org/">
            <dc:title>Openclipart</dc:title>
          </cc:Agent>
        </dc:publisher>
        <dc:title>pt</dc:title>
        <dc:date>2011-08-21T12:01:29</dc:date>
        <dc:description>country flag buttons (with ISO-3166-1 naming convention)</dc:description>
        <dc:source>http://openclipart.org/detail/156991/pt-by-koppi</dc:source>
        <dc:creator>
          <cc:Agent>
            <dc:title>koppi</dc:title>
          </cc:Agent>
        </dc:creator>
        <dc:subject>
          <rdf:Bag>
            <rdf:li>ISO3166-1</rdf:li>
            <rdf:li>button</rdf:li>
            <rdf:li>clip art</rdf:li>
            <rdf:li>clipart</rdf:li>
            <rdf:li>country</rdf:li>
            <rdf:li>flag</rdf:li>
            <rdf:li>flags</rdf:li>
            <rdf:li>squared</rdf:li>
          </rdf:Bag>
        </dc:subject>
      </cc:Work>
      <cc:License rdf:about="http://creativecommons.org/licenses/publicdomain/">
        <cc:permits rdf:resource="http://creativecommons.org/ns#Reproduction"/>
        <cc:permits rdf:resource="http://creativecommons.org/ns#Distribution"/>
        <cc:permits rdf:resource="http://creativecommons.org/ns#DerivativeWorks"/>
      </cc:License>
    </rdf:RDF>
  </metadata>
</svg>
